<svg width="800" height="600" xmlns="http://www.w3.org/2000/svg">

 <g>
  <title>Layer 1</title>
  <path class =d="m190,234c0,0 0,0 0,-1c0,0 -1,-1 -1,-2c0,-1 -1.48625,-1.82375 -2,-4c-0.22975,-0.97325 -1,-2 -1,-3c0,-1 -0.61731,-2.07613 -1,-3c-0.5412,-1.30656 -0.23463,-3.15224 -1,-5c-0.5412,-1.30656 -1.48625,-1.82375 -2,-4c-0.4595,-1.9465 0,-4 0,-6c0,-2 0.4595,-3.0535 0,-5c-0.51375,-2.17625 -1,-4 -1,-6c0,-2 -1,-4 -1,-5c0,-2 -0.48625,-3.82375 -1,-6c-0.68925,-2.91975 0,-5 0,-8c0,-2 0,-5 0,-7c0,-3 0,-6 0,-8c0,-2 0,-4 0,-6c0,-2 0.23463,-4.15224 1,-6c0.5412,-1.30656 1.48625,-2.82375 2,-5c0.4595,-1.9465 1.14429,-4.93414 2,-7c1.21014,-2.92157 1.5405,-5.0535 2,-7c0.51375,-2.17625 2.48625,-3.82375 3,-6c0.22975,-0.97325 0.69255,-3.186 2,-5c0.8269,-1.14727 2,-3 3,-4c1,-1 2,-2 3,-3c1,-1 2.186,-0.69255 4,-2c1.14726,-0.8269 3.186,-1.69255 5,-3c1.14726,-0.8269 1.82375,-1.48626 4,-2c0.97325,-0.22975 2.07613,-0.61732 3,-1c1.30656,-0.5412 3.0535,-0.5405 5,-1c2.17625,-0.51374 3.87856,-1.49346 7,-2c1.97418,-0.32037 5,0 7,0c3,0 5,0 8,0c1,0 3,0 5,0c2,0 4,1 6,2c2,1 5.41885,1.41886 7,3c1.58115,1.58114 3,3 4,4c1,1 2,2 2,2c1,1 1.29291,1.29289 2,2c0.70709,0.70711 0.1731,1.85273 1,3c1.30746,1.814 1,3 2,4c1,1 1.4588,2.69344 2,4c0.38269,0.92388 1,2 1,3c0,1 1,2 1,2c1,1 0.61731,2.07613 1,3c0.5412,1.30656 1.48627,1.82375 2,4c0.22977,0.97325 0.77023,2.02675 1,3c0.51373,2.17625 1.4588,2.69344 2,4c0.76538,1.84776 0.23462,3.15224 1,5c0.5412,1.30656 2,3 2,5c0,2 1,4 1,6c0,3 1,6 1,8c0,3 1,5 1,8c0,3 0.49347,5.87856 1,9c0.32037,1.97418 0.49347,4.87856 1,8c0.32037,1.97418 -0.4595,5.0535 0,7c0.51373,2.17625 -0.14804,4.22836 1,7c0.5412,1.30656 1.23462,4.15224 2,6c0.5412,1.30656 2,3 3,5c1,2 2.41885,4.41885 4,6c1.58115,1.58115 3,3 5,4c2,1 4.07843,2.78986 7,4c2.06586,0.85571 5.03873,1.51945 8,2c3.12143,0.50655 6.03873,1.48055 9,1c3.12143,-0.50655 6.04132,-0.84723 10,-2c3.03616,-0.88414 6,-2 9,-3c3,-1 5.79489,-3.22021 9,-6c3.77728,-3.27602 7.11215,-5.9183 10,-10c2.08246,-2.94336 4,-5 5,-8c1,-3 0.61066,-5.15927 2,-8c1.58411,-3.23892 1.67963,-6.02582 2,-8c0.50653,-3.12144 0.77023,-5.02675 1,-6c0.51373,-2.17625 1,-3 1,-4c0,-1 0,-2 0,-3c0,-1 0,-2 0,-3c0,-2 -1,-3 -1,-5c0,-1 0,-1 0,-1c0,-1 0,-1 0,-2c0,-1 -1,-2 -1,-3c0,-1 0,-2 0,-4c0,-1 -0.4588,-1.69344 -1,-3c-0.38269,-0.92387 0,-2 0,-1c0,0 0,1 0,2c0,1 0,2 0,3c0,1 -0.38269,2.07613 0,3c0.5412,1.30656 1,2 1,3c0,1 0,1 0,2c0,0 0,1 0,1c1,1 1,1 1,2c0,1 0.4588,1.69344 1,3c0.38269,0.92387 -0.76538,2.15224 0,4c0.5412,1.30656 1,2 1,3c0,1 -0.38269,2.07613 0,3c0.5412,1.30656 1,3 1,5c0,2 1,3 1,5c0,1 0.4588,2.69344 1,4c0.76538,1.84776 0.4588,3.69344 1,5c0.76538,1.84776 1,4 1,6c0,3 1.48627,5.82375 2,8c0.4595,1.9465 0.5405,5.0535 1,7c0.51373,2.17625 0.51944,6.03874 1,9c0.50653,3.12144 0.31073,6.08025 1,9c0.51373,2.17625 1.48627,4.82375 2,7c0.68927,2.91975 1,5 1,8c0,2 1.48627,4.82376 2,7c0.68927,2.91974 0.31073,6.08026 1,9c0.51373,2.17624 1.49347,3.87857 2,7c0.32037,1.97418 0,4 0,7c0,1 0,4 0,6c0,3 0.32037,5.02582 0,7c-0.50653,3.12143 -1.49347,5.87857 -2,9c-0.48056,2.96127 -1.11588,5.96384 -2,9c-1.15277,3.95868 -2,7 -3,10c-1,3 -1.69254,4.186 -3,6c-1.65381,2.29453 -3.81265,5.20682 -6,7c-2.78833,2.28589 -5.21167,3.71411 -8,6c-2.18735,1.79318 -5.15927,2.61066 -8,4c-3.23892,1.58411 -6.04132,2.84723 -10,4c-3.03616,0.88412 -6.96384,1.11588 -10,2c-3.95868,1.15277 -7,1 -10,1c-3,0 -6,0 -10,0c-3,0 -6,-1 -9,-2c-3,-1 -7,-2 -9,-3c-4,-2 -8,-3 -11,-4c-3,-1 -6.04132,-2.84723 -10,-4c-3.03616,-0.88412 -6.07843,-1.78986 -9,-3c-2.06586,-0.85571 -4.21167,-1.71411 -7,-4c-2.18735,-1.79318 -4.4505,-4.4505 -7,-7c-2.5495,-2.5495 -5.2068,-4.81265 -7,-7c-2.28587,-2.78833 -3,-5 -5,-7c-3,-3 -4,-4 -6,-6c-1,-1 -2.1731,-1.85272 -3,-3c-1.30745,-1.814 -1.69255,-2.186 -3,-4c-0.8269,-1.14728 -3.1731,-2.85272 -4,-4c-1.30745,-1.814 -1.69255,-3.186 -3,-5c-0.8269,-1.14728 -3.1731,-1.85272 -4,-3c-1.30745,-1.814 -2.34619,-2.70547 -4,-5c-1.30745,-1.814 -3.10341,-3.90634 -4,-5c-2.28587,-2.78833 -3.69255,-6.186 -5,-8c-1.65381,-2.29453 -3,-3 -4,-4c-2,-2 -3.1731,-3.85272 -4,-5c-1.30745,-1.814 -1.61731,-2.07611 -2,-3c-0.5412,-1.30655 -0.85274,-2.1731 -2,-3c-1.814,-1.30746 -2.61731,-3.07613 -3,-4c-0.5412,-1.30656 -1,-1 -1,-1c-1,-1 -1.4588,-0.69344 -2,-2c-0.38269,-0.92387 -0.29289,-2.29289 -1,-3c-0.70711,-0.70711 -0.29289,-1.29289 -1,-2c-0.70711,-0.70711 -0.69255,-1.186 -2,-3c-0.8269,-1.14726 -1.29289,-1.29289 -2,-2c-0.70711,-0.70711 0,-2 0,-2c0,-1 0,-1 0,-3c0,-1 0,-2 0,-3c0,-1 0,-1 0,-2c0,-1 -1,-1 -1,-2c0,-1 0,-1 0,-2c0,0 0,0 -1,-1l0,0" id="svg_1" stroke="#000000" fill="none"/>
  <path d="m291,294c0,0 1,0 1,0c1,0 2,0 3,0c2,0 3,0 4,0c1,0 1,0 2,0c1,0 2,0 3,0c1,0 2,0 4,0c2,0 4.0535,0.4595 6,0c2.17624,-0.51373 4.15225,-0.23462 6,-1c1.30655,-0.5412 2.29291,-0.29291 3,-1c0.70709,-0.70709 1,-1 2,-2c1,-1 1.61731,-1.07611 2,-2c0.5412,-1.30655 1.61731,-1.07611 2,-2c0.5412,-1.30655 0.69345,-2.4588 2,-3c0.92389,-0.38269 1,-1 1,-2c0,-1 0,-1 0,-2c0,-1 0.38269,-3.07611 0,-4c-0.5412,-1.30655 -0.61731,-2.07611 -1,-3c-0.5412,-1.30655 -1.29291,-1.29291 -2,-2c-0.70709,-0.70709 -1,-2 -2,-3c0,0 -1.4588,-0.69345 -2,-2c-0.38269,-0.92389 -1,-1 -2,-2c-1,-1 -1.29291,-1.29291 -2,-2c-0.70709,-0.70709 -2.07611,-0.61731 -3,-1c-1.30655,-0.5412 -2,-1 -4,-1c-1,0 -2.0535,-0.5405 -4,-1c-2.17624,-0.51373 -3,-1 -4,-1c-1,0 -3,0 -4,0c-1,0 -2,-1 -4,-1c-2,0 -4,0 -6,0c-2,0 -3.69345,-0.4588 -5,-1c-1.84775,-0.76537 -2,0 -2,0c-1,0 -1,0 -1,0c-1,0 -2,0 -3,0c0,0 0.30655,0.4588 -1,1c-0.92389,0.38269 -2,0 -2,0c-1,0 -1,0 -1,0l0,0" id="svg_2" stroke="#000000" fill="none"/>
  <path d="m236,119c0,0 -0.69344,-0.4588 -2,-1c-1.84776,-0.76537 -3.87856,-0.49346 -7,-1c-1.97418,-0.32037 -3,0 -4,0c-1,0 -3,1 -4,1c0,0 -1.69344,1.4588 -3,2c-0.92387,0.38268 -2.186,0.69255 -4,2c-1.14726,0.8269 -2,2 -3,3c-1,1 -1.61731,1.07612 -2,2c-0.5412,1.30656 -2.4588,1.69344 -3,3c-0.38269,0.92387 -1.4588,2.69344 -2,4c-0.38269,0.92387 -1,2 -1,3c0,2 -1,3 -1,5c0,2 0,3 0,5c0,1 0,3 0,4c0,2 -0.38269,3.07613 0,4c0.5412,1.30656 0.69255,2.186 2,4c0.8269,1.14726 2,3 2,3c1,1 1.61731,1.07613 2,2c0.5412,1.30656 1.69344,1.4588 3,2c0.92387,0.38269 2,0 3,1c1,1 2.69344,1.4588 4,2c1.84776,0.76537 3,0 4,0c2,0 2,1 4,1c2,0 4,0 5,0c1,0 2,0 3,0c1,0 3,-1 4,-1c1,0 1,-1 2,-1c1,0 1.85274,-1.1731 3,-2c1.814,-1.30745 3.07613,-1.61731 4,-2c1.30656,-0.5412 1.61731,-1.07613 2,-2c0.5412,-1.30656 2,-2 3,-3c1,-1 1,-2 1,-2c1,-1 1.48625,-1.82375 2,-4c0.4595,-1.9465 0,-4 0,-5c0,-1 0,-1 0,-1c0,-1 0.38269,-2.07613 0,-3c-0.5412,-1.30656 -1,-2 -1,-2c-1,-1 -1.4588,-1.69344 -2,-3c-0.38269,-0.92387 -1,-3 -1,-3c-1,-2 -1.1731,-1.85274 -2,-3c-1.30745,-1.814 -0.61731,-3.07613 -1,-4c-0.5412,-1.30656 -1.61731,-2.07612 -2,-3c-0.5412,-1.30656 -1.61731,-2.07612 -2,-3c-0.5412,-1.30656 -2,-1 -3,-2c-1,-1 -1.69344,-1.4588 -3,-2c-1.84776,-0.76537 -4,-1 -6,-1c-2,0 -4,-1 -5,-1c0,0 0,0 -1,0l0,0" id="svg_3" stroke="#000000" fill="none"/>
  <path d="m203,134c0,-1 1,-1 1,-1c1,0 1.29289,-0.29289 2,-1c0.70711,-0.70711 2,0 3,0c1,0 2,0 3,0c1,0 2,0 3,0c0,0 1,0 1,1c0,0 1.4588,0.69344 2,2c0.38269,0.92387 0.61731,2.07613 1,3c0.5412,1.30656 1,1 1,1c1,1 1,1 1,2c0,1 0.29289,0.29289 1,1c0.70711,0.70711 0,2 0,2c0,1 0.70711,2.29289 0,3c-0.70711,0.70711 -0.61731,1.07613 -1,2c-0.5412,1.30656 -1.4588,0.69344 -2,2c-0.38269,0.92387 -1,1 -1,2c0,0 -0.29289,1.29289 -1,2c-0.70711,0.70711 -2,1 -2,1c-1,1 -1.29289,0.29289 -2,1c-0.70711,0.70711 -1,1 -1,1c-1,0 -1,0 -2,0c0,0 0,1 -1,1c0,0 0,0 0,0c-1,0 -1,0 -1,0l0,0l0,0" id="svg_4" stroke="#000000" fill="none"/>
  <path d="m154,163c1,0 1.186,-0.30745 3,1c1.14726,0.8269 2.29289,1.29289 3,2c0.70711,0.70711 1,0 1,0c1,0 1.69344,1.4588 3,2c1.84776,0.76537 2.0535,0.5405 4,1c2.17625,0.51375 3.02675,0.77025 4,1c2.17625,0.51375 2.02675,0.77025 3,1c2.17625,0.51375 3,1 3,1c0,0 0,1 0,1c0,0 -1,0 -1,0c0,0 0,0 -1,1c0,0 0.30656,0.4588 -1,1c-0.92387,0.38269 -0.69344,1.4588 -2,2c-0.92387,0.38269 -2.186,1.69255 -4,3c-1.14726,0.8269 -1.61731,2.07613 -2,3c-0.5412,1.30656 -2.07613,1.61731 -3,2c-1.30656,0.5412 -1,2 -2,3c-1,1 -2,2 -3,3c0,0 -1,1 -1,1l0,1l0,0" id="svg_5" stroke="#000000" fill="none"/>
 </g>
</svg>